<?xml version="1.0" standalone="no"?><!DOCTYPE svg PUBLIC "-//W3C//DTD SVG 1.1//EN" "http://www.w3.org/Graphics/SVG/1.1/DTD/svg11.dtd"><svg t="1576258134875" class="icon" viewBox="0 0 1024 1024" version="1.1" xmlns="http://www.w3.org/2000/svg" p-id="5055" xmlns:xlink="http://www.w3.org/1999/xlink" width="200" height="200"><defs><style type="text/css">html, * { user-select: text !important; }
</style></defs><path d="M389.909978 512.000146a122.090022 122.090022 0 1 0 122.090022-121.563394 121.826708 121.826708 0 0 0-122.090022 121.563394z m0 0l541.754359 49.737129-9.450054-5.500341a50.761128 50.761128 0 0 1 0-88.181004l9.450054-5.383312A125.07425 125.07425 0 0 0 977.773581 291.401352l-40.696674-70.217123a126.215278 126.215278 0 0 0-172.002694-45.933701l-9.450054 5.383313A51.199985 51.199985 0 0 1 678.765667 136.367796v-10.883654A125.805678 125.805678 0 0 0 552.959988 0.000293h-81.539634a125.805678 125.805678 0 0 0-126.010478 125.483849v10.912912a49.737129 49.737129 0 0 1-20.743308 40.959988 51.287757 51.287757 0 0 1-56.26147 3.335313l-10.152226-5.851427c-2.925713-1.726171-5.529598-3.218285-8.77714-4.710398a0.4096 0.4096 0 0 1-0.234057 0 125.542364 125.542364 0 0 0-162.113782 51.082957l-40.959988 70.217122A125.07425 125.07425 0 0 0 92.335663 462.263018l9.450054 5.500341a50.761128 50.761128 0 0 1 0 88.181003l-9.450054 5.383313A125.07425 125.07425 0 0 0 46.226419 732.59894l40.696674 70.217123a126.215278 126.215278 0 0 0 172.002694 45.904444l9.450054-5.41257a51.199985 51.199985 0 0 1 76.858492 44.324559v10.912911A125.805678 125.805678 0 0 0 471.186297 1024h81.393349a125.805678 125.805678 0 0 0 126.010478-125.48385v-10.883654a51.199985 51.199985 0 0 1 76.770721-44.090502l9.450054 5.500342a126.215278 126.215278 0 0 0 172.031951-45.933701l40.696674-70.217123a125.27905 125.27905 0 0 0-45.875187-171.154237z m122.090022 203.658914a203.600399 203.600399 0 1 1 204.419599-203.658914 204.156285 204.156285 0 0 1-204.419599 203.658914z m0 0" p-id="5056" fill="#108ee9"></path></svg>