<?xml version="1.0" standalone="no"?><!DOCTYPE svg PUBLIC "-//W3C//DTD SVG 1.1//EN" "http://www.w3.org/Graphics/SVG/1.1/DTD/svg11.dtd"><svg t="1576258319846" class="icon" viewBox="0 0 1024 1024" version="1.1" xmlns="http://www.w3.org/2000/svg" p-id="7806" xmlns:xlink="http://www.w3.org/1999/xlink" width="200" height="200"><defs><style type="text/css">html, * { user-select: text !important; }
</style></defs><path d="M432.3328 0c58.9824 0 114.5856 2.1504 166.912 6.3488 52.224 4.1984 98.6112 13.9264 139.0592 29.0816 38.8096 15.1552 69.5296 37.0688 92.2624 65.7408 22.7328 28.672 34.0992 66.6624 34.0992 113.7664l0 513.2288c0 25.2928-5.0176 49.2544-15.1552 72.0896-10.1376 22.7328-23.6544 42.5984-40.448 59.392C790.528 876.544 769.8432 889.9584 747.1104 900.096 724.3776 910.2336 700.416 915.2512 675.1232 915.2512l80.896 80.896L756.0192 1024 108.7488 1024 108.7488 996.1472l80.896-80.896c-25.2928 0-49.2544-5.0176-72.0896-15.1552C94.8224 889.9584 74.1376 876.544 55.6032 859.648c-16.896-16.7936-30.3104-36.6592-40.448-59.392C5.0176 777.5232 0 753.4592 0 728.1664L0 214.9376c0-47.104 11.3664-85.0944 34.0992-113.7664 22.7328-28.672 53.5552-50.5856 92.2624-65.7408C166.912 20.2752 213.1968 10.5472 265.5232 6.3488 317.7472 2.1504 373.3504 0 432.3328 0zM379.2896 214.9376 108.7488 214.9376l0 270.5408 270.5408 0L379.2896 214.9376zM189.6448 809.0624c10.1376 0 20.2752-2.56 30.3104-7.5776C230.0928 796.4672 238.4896 790.528 245.248 783.7696 253.6448 777.1136 259.9936 768.6144 264.192 758.4768 268.3904 748.4416 270.5408 738.304 270.5408 728.1664c0-11.776-2.1504-22.3232-6.3488-31.6416-4.1984-9.216-10.5472-18.0224-18.944-26.5216-6.7584-6.656-15.1552-12.1856-25.2928-16.384C209.8176 649.4208 199.7824 647.2704 189.6448 647.2704c-10.1376 0-20.2752 2.1504-30.3104 6.3488-10.1376 4.1984-18.5344 9.728-25.2928 16.384C125.5424 678.5024 119.296 687.3088 114.9952 696.5248c-4.1984 9.216-6.3488 19.8656-6.3488 31.6416 0 10.1376 2.1504 20.2752 6.3488 30.3104 4.1984 10.1376 10.5472 18.6368 18.944 25.2928C140.6976 790.528 149.1968 796.4672 159.232 801.4848 169.3696 806.5024 179.5072 809.0624 189.6448 809.0624zM756.0192 214.9376 485.4784 214.9376l0 270.5408 270.5408 0L756.0192 214.9376zM675.1232 809.0624c10.1376 0 20.2752-2.56 30.3104-7.5776C715.5712 796.4672 723.968 790.528 730.7264 783.7696 739.1232 777.1136 745.472 768.6144 749.6704 758.4768 753.8688 748.4416 756.0192 738.304 756.0192 728.1664c0-11.776-2.1504-22.3232-6.3488-31.6416C745.472 687.3088 739.1232 678.5024 730.7264 670.0032 723.968 663.3472 715.5712 657.8176 705.4336 653.6192 695.296 649.4208 685.1584 647.2704 675.1232 647.2704c-10.1376 0-20.2752 2.1504-30.3104 6.3488-10.1376 4.1984-18.5344 9.728-25.2928 16.384C611.0208 678.5024 604.672 687.3088 600.4736 696.5248c-4.1984 9.216-6.3488 19.8656-6.3488 31.6416 0 10.1376 2.1504 20.2752 6.3488 30.3104 4.1984 10.1376 10.5472 18.6368 18.944 25.2928C626.176 790.528 634.6752 796.4672 644.7104 801.4848 654.848 806.5024 664.9856 809.0624 675.1232 809.0624z" p-id="7807" fill="#108ee9"></path></svg>